# xmcd
#
# Track frame offsets:
#	150
#	16014
#	31078
#	44795
#	64845
#	80333
#	95998
#	111073
#	129561
#	145714
#	163931
#
# Disc length: 2529 seconds
#
# Revision: 1
# Processed by: cddbd v1.5.2PL0 Copyright (c) Steve Scherf et al.
# Submitted via: audiograbber 1.83.01
#
DISCID=9209df0b
DTITLE=Matt Greger - Don't let them fool Ya
DYEAR=1900
DGENRE=Country
TTITLE0=You don'tm know me
TTITLE1=Springtime
TTITLE2=The bush is burning
TTITLE3=7th grade
TTITLE4=Do You love me
TTITLE5=Don't let them fool ya
TTITLE6=Time flies by
TTITLE7=Your grace found me
TTITLE8=Waiting for a better day
TTITLE9=Come home
TTITLE10=Come home - Reprise
EXTD=
EXTT0=
EXTT1=
EXTT2=
EXTT3=
EXTT4=
EXTT5=
EXTT6=
EXTT7=
EXTT8=
EXTT9=
EXTT10=
PLAYORDER=
